<svg height="1998" width="720" xmlns="http://www.w3.org/2000/svg">
<rect height="1998" fill="#555" width="720"></rect>
<text fill="#7f7" font-family="Courier New" font-size="12" xml:space="preserve">
<tspan x="10" y="26">4 megabytes installed</tspan>
<tspan x="10" y="42"></tspan>
<tspan x="10" y="58">node_modules</tspan>
<tspan x="10" y="74">└─┬ gulp-watch@4.3.11 </tspan>
<tspan x="10" y="90">  ├─┬ anymatch@1.3.0 </tspan>
<tspan x="10" y="106">  │ ├── arrify@1.0.1 </tspan>
<tspan x="10" y="122">  │ └─┬ micromatch@2.3.11 </tspan>
<tspan x="10" y="138">  │   ├─┬ arr-diff@2.0.0 </tspan>
<tspan x="10" y="154">  │   │ └── arr-flatten@1.0.3 </tspan>
<tspan x="10" y="170">  │   ├── array-unique@0.2.1 </tspan>
<tspan x="10" y="186">  │   ├─┬ braces@1.8.5 </tspan>
<tspan x="10" y="202">  │   │ ├─┬ expand-range@1.8.2 </tspan>
<tspan x="10" y="218">  │   │ │ └─┬ fill-range@2.2.3 </tspan>
<tspan x="10" y="234">  │   │ │   ├── is-number@2.1.0 </tspan>
<tspan x="10" y="250">  │   │ │   ├── isobject@2.1.0 </tspan>
<tspan x="10" y="266">  │   │ │   ├── randomatic@1.1.6 </tspan>
<tspan x="10" y="282">  │   │ │   └── repeat-string@1.6.1 </tspan>
<tspan x="10" y="298">  │   │ ├── preserve@0.2.0 </tspan>
<tspan x="10" y="314">  │   │ └── repeat-element@1.1.2 </tspan>
<tspan x="10" y="330">  │   ├─┬ expand-brackets@0.1.5 </tspan>
<tspan x="10" y="346">  │   │ └── is-posix-bracket@0.1.1 </tspan>
<tspan x="10" y="362">  │   ├── extglob@0.3.2 </tspan>
<tspan x="10" y="378">  │   ├── filename-regex@2.0.0 </tspan>
<tspan x="10" y="394">  │   ├── is-extglob@1.0.0 </tspan>
<tspan x="10" y="410">  │   ├─┬ kind-of@3.1.0 </tspan>
<tspan x="10" y="426">  │   │ └── is-buffer@1.1.5 </tspan>
<tspan x="10" y="442">  │   ├─┬ normalize-path@2.1.1 </tspan>
<tspan x="10" y="458">  │   │ └── remove-trailing-separator@1.0.1 </tspan>
<tspan x="10" y="474">  │   ├─┬ object.omit@2.0.1 </tspan>
<tspan x="10" y="490">  │   │ ├─┬ for-own@0.1.5 </tspan>
<tspan x="10" y="506">  │   │ │ └── for-in@1.0.2 </tspan>
<tspan x="10" y="522">  │   │ └── is-extendable@0.1.1 </tspan>
<tspan x="10" y="538">  │   ├─┬ parse-glob@3.0.4 </tspan>
<tspan x="10" y="554">  │   │ ├─┬ glob-base@0.3.0 </tspan>
<tspan x="10" y="570">  │   │ │ └── glob-parent@2.0.0 </tspan>
<tspan x="10" y="586">  │   │ └── is-dotfile@1.0.2 </tspan>
<tspan x="10" y="602">  │   └─┬ regex-cache@0.4.3 </tspan>
<tspan x="10" y="618">  │     ├── is-equal-shallow@0.1.3 </tspan>
<tspan x="10" y="634">  │     └── is-primitive@2.0.0 </tspan>
<tspan x="10" y="650">  ├─┬ chokidar@1.6.1 </tspan>
<tspan x="10" y="666">  │ ├── async-each@1.0.1 </tspan>
<tspan x="10" y="682">  │ ├── glob-parent@2.0.0 </tspan>
<tspan x="10" y="698">  │ ├── inherits@2.0.3 </tspan>
<tspan x="10" y="714">  │ ├─┬ is-binary-path@1.0.1 </tspan>
<tspan x="10" y="730">  │ │ └── binary-extensions@1.8.0 </tspan>
<tspan x="10" y="746">  │ ├── is-glob@2.0.1 </tspan>
<tspan x="10" y="762">  │ └─┬ readdirp@2.1.0 </tspan>
<tspan x="10" y="778">  │   ├─┬ minimatch@3.0.3 </tspan>
<tspan x="10" y="794">  │   │ └─┬ brace-expansion@1.1.7 </tspan>
<tspan x="10" y="810">  │   │   ├── balanced-match@0.4.2 </tspan>
<tspan x="10" y="826">  │   │   └── concat-map@0.0.1 </tspan>
<tspan x="10" y="842">  │   └── set-immediate-shim@1.0.1 </tspan>
<tspan x="10" y="858">  ├─┬ glob-parent@3.1.0 </tspan>
<tspan x="10" y="874">  │ ├─┬ is-glob@3.1.0 </tspan>
<tspan x="10" y="890">  │ │ └── is-extglob@2.1.1 </tspan>
<tspan x="10" y="906">  │ └── path-dirname@1.0.2 </tspan>
<tspan x="10" y="922">  ├─┬ gulp-util@3.0.8 </tspan>
<tspan x="10" y="938">  │ ├── array-differ@1.0.0 </tspan>
<tspan x="10" y="954">  │ ├── array-uniq@1.0.3 </tspan>
<tspan x="10" y="970">  │ ├── beeper@1.1.1 </tspan>
<tspan x="10" y="986">  │ ├─┬ chalk@1.1.3 </tspan>
<tspan x="10" y="1002">  │ │ ├── ansi-styles@2.2.1 </tspan>
<tspan x="10" y="1018">  │ │ ├── escape-string-regexp@1.0.5 </tspan>
<tspan x="10" y="1034">  │ │ ├─┬ has-ansi@2.0.0 </tspan>
<tspan x="10" y="1050">  │ │ │ └── ansi-regex@2.1.1 </tspan>
<tspan x="10" y="1066">  │ │ ├── strip-ansi@3.0.1 </tspan>
<tspan x="10" y="1082">  │ │ └── supports-color@2.0.0 </tspan>
<tspan x="10" y="1098">  │ ├── dateformat@2.0.0 </tspan>
<tspan x="10" y="1114">  │ ├─┬ fancy-log@1.3.0 </tspan>
<tspan x="10" y="1130">  │ │ └── time-stamp@1.0.1 </tspan>
<tspan x="10" y="1146">  │ ├─┬ gulplog@1.0.0 </tspan>
<tspan x="10" y="1162">  │ │ └── glogg@1.0.0 </tspan>
<tspan x="10" y="1178">  │ ├─┬ has-gulplog@0.1.0 </tspan>
<tspan x="10" y="1194">  │ │ └── sparkles@1.0.0 </tspan>
<tspan x="10" y="1210">  │ ├── lodash._reescape@3.0.0 </tspan>
<tspan x="10" y="1226">  │ ├── lodash._reevaluate@3.0.0 </tspan>
<tspan x="10" y="1242">  │ ├── lodash._reinterpolate@3.0.0 </tspan>
<tspan x="10" y="1258">  │ ├─┬ lodash.template@3.6.2 </tspan>
<tspan x="10" y="1274">  │ │ ├── lodash._basecopy@3.0.1 </tspan>
<tspan x="10" y="1290">  │ │ ├── lodash._basetostring@3.0.1 </tspan>
<tspan x="10" y="1306">  │ │ ├── lodash._basevalues@3.0.0 </tspan>
<tspan x="10" y="1322">  │ │ ├── lodash._isiterateecall@3.0.9 </tspan>
<tspan x="10" y="1338">  │ │ ├─┬ lodash.escape@3.2.0 </tspan>
<tspan x="10" y="1354">  │ │ │ └── lodash._root@3.0.1 </tspan>
<tspan x="10" y="1370">  │ │ ├─┬ lodash.keys@3.1.2 </tspan>
<tspan x="10" y="1386">  │ │ │ ├── lodash._getnative@3.9.1 </tspan>
<tspan x="10" y="1402">  │ │ │ ├── lodash.isarguments@3.1.0 </tspan>
<tspan x="10" y="1418">  │ │ │ └── lodash.isarray@3.0.4 </tspan>
<tspan x="10" y="1434">  │ │ ├── lodash.restparam@3.6.1 </tspan>
<tspan x="10" y="1450">  │ │ └── lodash.templatesettings@3.1.1 </tspan>
<tspan x="10" y="1466">  │ ├── minimist@1.2.0 </tspan>
<tspan x="10" y="1482">  │ ├─┬ multipipe@0.1.2 </tspan>
<tspan x="10" y="1498">  │ │ └─┬ duplexer2@0.0.2 </tspan>
<tspan x="10" y="1514">  │ │   └─┬ readable-stream@1.1.14 </tspan>
<tspan x="10" y="1530">  │ │     ├── isarray@0.0.1 </tspan>
<tspan x="10" y="1546">  │ │     └── string_decoder@0.10.31 </tspan>
<tspan x="10" y="1562">  │ ├── object-assign@3.0.0 </tspan>
<tspan x="10" y="1578">  │ ├── replace-ext@0.0.1 </tspan>
<tspan x="10" y="1594">  │ ├─┬ through2@2.0.3 </tspan>
<tspan x="10" y="1610">  │ │ └── xtend@4.0.1 </tspan>
<tspan x="10" y="1626">  │ └── vinyl@0.5.3 </tspan>
<tspan x="10" y="1642">  ├── object-assign@4.1.1 </tspan>
<tspan x="10" y="1658">  ├── path-is-absolute@1.0.1 </tspan>
<tspan x="10" y="1674">  ├─┬ readable-stream@2.2.9 </tspan>
<tspan x="10" y="1690">  │ ├── buffer-shims@1.0.0 </tspan>
<tspan x="10" y="1706">  │ ├── core-util-is@1.0.2 </tspan>
<tspan x="10" y="1722">  │ ├── isarray@1.0.0 </tspan>
<tspan x="10" y="1738">  │ ├── process-nextick-args@1.0.7 </tspan>
<tspan x="10" y="1754">  │ ├── string_decoder@1.0.0 </tspan>
<tspan x="10" y="1770">  │ └── util-deprecate@1.0.2 </tspan>
<tspan x="10" y="1786">  ├── slash@1.0.0 </tspan>
<tspan x="10" y="1802">  ├─┬ vinyl@1.2.0 </tspan>
<tspan x="10" y="1818">  │ ├── clone@1.0.2 </tspan>
<tspan x="10" y="1834">  │ └── clone-stats@0.0.1 </tspan>
<tspan x="10" y="1850">  └─┬ vinyl-file@2.0.0 </tspan>
<tspan x="10" y="1866">    ├── graceful-fs@4.1.11 </tspan>
<tspan x="10" y="1882">    ├── pify@2.3.0 </tspan>
<tspan x="10" y="1898">    ├─┬ pinkie-promise@2.0.1 </tspan>
<tspan x="10" y="1914">    │ └── pinkie@2.0.4 </tspan>
<tspan x="10" y="1930">    ├─┬ strip-bom@2.0.0 </tspan>
<tspan x="10" y="1946">    │ └── is-utf8@0.2.1 </tspan>
<tspan x="10" y="1962">    └─┬ strip-bom-stream@2.0.0 </tspan>
<tspan x="10" y="1978">      └── first-chunk-stream@2.0.0</tspan>
</text>
</svg>
